<svg version="1.1" viewBox="0.0 0.0 720.0 240.0" fill="none" stroke="none" stroke-linecap="square" stroke-miterlimit="10" xmlns:xlink="http://www.w3.org/1999/xlink" xmlns="http://www.w3.org/2000/svg"><clipPath id="p.0"><path d="m0 0l720.0 0l0 240.0l-720.0 0l0 -240.0z" clip-rule="nonzero"/></clipPath><g clip-path="url(#p.0)"><path fill="#000000" fill-opacity="0.0" d="m0 0l720.0 0l0 240.0l-720.0 0z" fill-rule="evenodd"/><path fill="#000000" fill-opacity="0.0" d="m3.984252 0l712.0315 0l0 240.0l-712.0315 0z" fill-rule="evenodd"/><path fill="#000000" d="m109.34375 168.755q-0.6875 1.25 -2.0625 1.25q-1.125 0 -1.75 -0.71875q-0.625 -0.71875 -0.625 -1.71875q0 -0.125 0.0625 -2.59375q0.0625 -2.46875 0.0625 -6.65625q0 -5.3125 0.03125 -11.3125q0.03125 -6.0 -0.15625 -12.1875q-0.1875 -6.1875 -0.8125 -12.3125q-0.625 -6.125 -1.9375 -11.71875q-1.3125 -5.59375 -3.4375 -10.40625q-2.125 -4.8125 -5.4375 -8.34375q-3.3125 -3.53125 -7.875 -5.53125q-4.5625 -2.0 -10.75 -2.0q-6.0625 0 -11.0625 2.09375q-5.0 2.09375 -8.59375 5.625q-3.59375 3.53125 -5.5625 8.25q-1.96875 4.71875 -1.96875 9.96875q0 4.5625 1.59375 8.40625q1.59375 3.84375 4.34375 6.65625q2.75 2.8125 6.40625 4.40625q3.65625 1.59375 7.78125 1.59375q3.0625 0 5.625 -0.84375q2.5625 -0.84375 4.375 -1.84375q1.8125 -1.0 2.8125 -1.84375q1.0 -0.84375 1.0625 -0.84375q0.6875 -0.6875 1.6875 -0.6875q0.9375 0 1.625 0.65625q0.6875 0.65625 0.6875 1.59375q0 0.9375 -0.6875 1.625q-0.125 0.125 -1.40625 1.21875q-1.28125 1.09375 -3.53125 2.34375q-2.25 1.25 -5.34375 2.25q-3.09375 1.0 -6.84375 1.0q-5.1875 0 -9.71875 -1.9375q-4.53125 -1.9375 -7.90625 -5.375q-3.375 -3.4375 -5.34375 -8.15625q-1.96875 -4.71875 -1.96875 -10.21875q0 -6.25 2.40625 -11.8125q2.40625 -5.5625 6.65625 -9.71875q4.25 -4.15625 10.03125 -6.5625q5.78125 -2.40625 12.59375 -2.40625q8.8125 0 14.875 3.15625q6.0625 3.15625 10.03125 8.4375q3.96875 5.28125 6.125 12.1875q2.15625 6.90625 3.15625 14.40625q1.0 7.5 1.1875 15.09375q0.1875 7.59375 0.1875 14.28125q0 1.25 0 2.6875q0 1.4375 -0.03125 2.875q-0.03125 1.4375 -0.0625 2.71875q-0.03125 1.28125 -0.03125 2.09375l41.875 -77.5q0.5625 -1.1875 2.0 -1.1875q1.0625 0 1.71875 0.71875q0.65625 0.71875 0.65625 1.65625q0 0.3125 -0.375 2.28125q-0.375 1.96875 -0.90625 5.21875q-0.53125 3.25 -1.15625 7.53125q-0.625 4.28125 -1.15625 9.21875q-0.53125 4.9375 -0.90625 10.28125q-0.375 5.34375 -0.375 10.65625q0 8.9375 0.9375 15.84375q0.9375 6.90625 3.0625 11.65625q2.125 4.75 5.59375 7.1875q3.46875 2.4375 8.53125 2.4375q4.5625 0 8.6875 -1.96875q4.125 -1.96875 7.6875 -5.40625q3.5625 -3.4375 6.625 -8.0625q3.0625 -4.625 5.53125 -9.96875q2.46875 -5.34375 4.375 -11.09375q1.90625 -5.75 3.1875 -11.4375q1.28125 -5.6875 1.9375 -11.0625q0.65625 -5.375 0.65625 -9.875q0 -8.125 -1.84375 -14.96875q-1.84375 -6.84375 -5.90625 -11.15625q-0.625 -0.625 -0.625 -1.5625q0 -1.0 0.71875 -1.6875q0.71875 -0.6875 1.65625 -0.6875q1.0625 0 1.6875 0.6875q2.375 2.5625 4.09375 5.78125q1.71875 3.21875 2.8125 7.0q1.09375 3.78125 1.625 7.96875q0.53125 4.1875 0.53125 8.6875q0 6.875 -1.3125 14.96875q-1.3125 8.09375 -3.875 16.25q-2.5625 8.15625 -6.28125 15.78125q-3.71875 7.625 -8.5625 13.46875q-4.84375 5.84375 -10.71875 9.375q-5.875 3.53125 -12.6875 3.53125q-6.4375 0 -10.8125 -2.90625q-4.375 -2.90625 -7.03125 -8.375q-2.65625 -5.46875 -3.8125 -13.28125q-1.15625 -7.8125 -1.15625 -17.625q0 -4.0625 0.28125 -8.375q0.28125 -4.3125 0.6875 -8.4375q0.40625 -4.125 0.875 -7.9375q0.46875 -3.8125 0.90625 -6.875l-39.9375 74.125zm114.5625 -9.75q1.3125 1.8125 3.375 2.90625q2.0625 1.09375 5.0625 1.09375q3.0625 0 5.5625 -1.46875q2.5 -1.46875 4.5625 -3.84375q2.0625 -2.375 3.6875 -5.3125q1.625 -2.9375 2.9375 -5.875q0.3125 -0.6875 0.875 -1.03125q0.5625 -0.34375 1.25 -0.34375q1.0625 0 1.71875 0.75q0.65625 0.75 0.65625 1.625q0 0.3125 -0.0625 0.53125q-0.0625 0.21875 -0.1875 0.46875q-4.3125 9.5 -9.40625 14.3125q-5.09375 4.8125 -11.53125 4.9375q-4.125 0 -7.125 -1.59375q-3.0 -1.59375 -4.9375 -4.125q-1.9375 -2.53125 -2.875 -5.71875q-0.9375 -3.1875 -0.9375 -6.375q0 -3.1875 0.78125 -5.875q0.78125 -2.6875 2.25 -4.6875q1.46875 -2.0 3.5 -3.125q2.03125 -1.125 4.46875 -1.125q1.4375 0 2.84375 0.59375q1.40625 0.59375 2.53125 1.6875q1.125 1.09375 1.8125 2.65625q0.6875 1.5625 0.6875 3.5625q0 2.5625 -0.875 4.8125q-0.875 2.25 -2.40625 4.1875q-1.53125 1.9375 -3.65625 3.5625q-2.125 1.625 -4.5625 2.8125zm-1.875 -4.0625q1.9375 -0.8125 3.53125 -2.0625q1.59375 -1.25 2.71875 -2.75q1.125 -1.5 1.75 -3.15625q0.625 -1.65625 0.625 -3.34375q0 -1.875 -0.9375 -2.84375q-0.9375 -0.96875 -2.1875 -0.96875q-1.6875 0 -2.875 0.9375q-1.1875 0.9375 -1.9375 2.4375q-0.75 1.5 -1.09375 3.34375q-0.34375 1.84375 -0.34375 3.65625q0 1.125 0.21875 2.375q0.21875 1.25 0.53125 2.375zm134.0 -76.0625q0.875 0 1.65625 0.65625q0.78125 0.65625 0.78125 1.71875q0 1.3125 -1.1875 2.0q-0.0625 0.0625 -1.71875 1.1875q-1.65625 1.125 -3.90625 3.5q4.6875 0.5625 9.5625 0.5625q4.75 0 8.65625 -0.65625q3.90625 -0.65625 7.0 -1.8125q3.09375 -1.15625 5.375 -2.71875q2.28125 -1.5625 3.78125 -3.4375q0.375 -0.4375 0.875 -0.71875q0.5 -0.28125 1.0625 -0.28125q1.0 0 1.65625 0.75q0.65625 0.75 0.65625 1.625q0 0.875 -0.4375 1.375q-1.5 2.0 -4.0 3.90625q-2.5 1.90625 -6.0625 3.40625q-3.5625 1.5 -8.1875 2.40625q-4.625 0.90625 -10.3125 0.90625q-3.25 0 -6.5 -0.28125q-3.25 -0.28125 -6.5 -0.78125q-1.4375 2.0625 -2.65625 4.625q-1.21875 2.5625 -1.96875 5.625q-1.3125 5.25 -1.46875 11.125q-0.15625 5.875 -0.25 11.96875q-0.09375 6.09375 -0.59375 12.125q-0.5 6.03125 -2.375 11.65625q-1.4375 4.25 -3.84375 7.875q-2.40625 3.625 -5.875 6.28125q-3.46875 2.65625 -7.9375 4.1875q-4.46875 1.53125 -10.03125 1.53125q-9.125 0 -16.5 -3.625q-7.375 -3.625 -12.8125 -11.4375q-0.1875 -0.3125 -0.5 -0.875q-0.3125 -0.5625 -0.3125 -1.125q0 -0.875 0.625 -1.6875q0.625 -0.8125 1.75 -0.8125q0.6875 0 1.25 0.34375q0.5625 0.34375 0.875 0.84375q4.5625 7.0 10.6875 10.34375q6.125 3.34375 14.875 3.34375q4.625 0 8.3125 -1.15625q3.6875 -1.15625 6.53125 -3.3125q2.84375 -2.15625 4.90625 -5.28125q2.0625 -3.125 3.4375 -7.125q1.5 -4.375 1.90625 -10.09375q0.40625 -5.71875 0.53125 -11.9375q0.125 -6.21875 0.46875 -12.46875q0.34375 -6.25 1.71875 -11.8125q0.6875 -2.9375 1.8125 -5.4375q1.125 -2.5 2.375 -4.625q-8.375 -1.6875 -16.65625 -4.28125q-8.28125 -2.59375 -16.1875 -5.0q-7.90625 -2.40625 -15.25 -4.15625q-7.34375 -1.75 -13.84375 -1.75q-5.9375 0 -10.96875 1.6875q-5.03125 1.6875 -8.6875 4.75q-3.65625 3.0625 -5.6875 7.375q-2.03125 4.3125 -2.03125 9.5625q0 3.8125 1.34375 7.0q1.34375 3.1875 3.71875 5.53125q2.375 2.34375 5.625 3.65625q3.25 1.3125 7.125 1.3125q4.0625 0 7.25 -1.21875q3.1875 -1.21875 5.625 -3.03125q2.4375 -1.8125 4.15625 -3.9375q1.71875 -2.125 2.8125 -3.96875q1.09375 -1.84375 1.625 -3.0625q0.53125 -1.21875 0.53125 -1.21875q0.25 -0.6875 0.875 -1.125q0.625 -0.4375 1.375 -0.4375q1.0625 0 1.71875 0.71875q0.65625 0.71875 0.65625 1.65625q0 0.1875 -0.03125 0.34375q-0.03125 0.15625 -0.09375 0.34375q-0.0625 0.125 -0.6875 1.65625q-0.625 1.53125 -1.9375 3.6875q-1.3125 2.15625 -3.375 4.65625q-2.0625 2.5 -5.0 4.65625q-2.9375 2.15625 -6.78125 3.5625q-3.84375 1.40625 -8.78125 1.40625q-4.75 0 -8.84375 -1.6875q-4.09375 -1.6875 -7.125 -4.625q-3.03125 -2.9375 -4.75 -7.0q-1.71875 -4.0625 -1.71875 -8.875q0 -6.375 2.4375 -11.53125q2.4375 -5.15625 6.75 -8.84375q4.3125 -3.6875 10.1875 -5.6875q5.875 -2.0 12.75 -2.0q5.0 0 10.0625 0.875q5.0625 0.875 10.28125 2.3125q5.21875 1.4375 10.59375 3.1875q5.375 1.75 10.90625 3.53125q5.53125 1.78125 11.25 3.34375q5.71875 1.5625 11.65625 2.5625q1.5625 -1.9375 3.09375 -3.4375q1.53125 -1.5 2.75 -2.46875q1.21875 -0.96875 2.03125 -1.5q0.8125 -0.53125 0.9375 -0.59375q0.625 -0.3125 1.125 -0.3125zm10.3125 81.6875q1.0 -2.125 2.3125 -4.59375q1.3125 -2.46875 2.8125 -5.0625q1.5 -2.59375 3.1875 -5.15625q1.6875 -2.5625 3.5 -4.8125q1.8125 -2.1875 3.65625 -3.15625q1.84375 -0.96875 3.46875 -0.96875q1.625 0 2.84375 0.65625q1.21875 0.65625 2.0 1.78125q0.78125 1.125 1.1875 2.625q0.40625 1.5 0.40625 3.25q0 1.4375 -0.28125 3.84375q-0.28125 2.40625 -0.28125 5.03125q0 1.5 0.15625 2.96875q0.15625 1.46875 0.5625 2.625q0.40625 1.15625 1.21875 1.875q0.8125 0.71875 2.125 0.71875q1.5 0 3.0 -0.84375q1.5 -0.84375 2.9375 -2.25q1.4375 -1.40625 2.75 -3.125q1.3125 -1.71875 2.375 -3.4375q1.0625 -1.71875 1.875 -3.3125q0.8125 -1.59375 1.3125 -2.65625q0.625 -1.4375 2.1875 -1.4375q1.0625 0 1.6875 0.75q0.625 0.75 0.625 1.625q0 0.5 -0.1875 0.9375q-0.25 0.5 -0.96875 2.0625q-0.71875 1.5625 -1.9375 3.625q-1.21875 2.0625 -2.84375 4.3125q-1.625 2.25 -3.59375 4.15625q-1.96875 1.90625 -4.25 3.125q-2.28125 1.21875 -4.78125 1.21875q-2.875 0 -4.625 -1.21875q-1.75 -1.21875 -2.71875 -3.09375q-0.96875 -1.875 -1.3125 -4.1875q-0.34375 -2.3125 -0.34375 -4.5q0 -1.125 0.09375 -2.40625q0.09375 -1.28125 0.21875 -2.53125q0.125 -1.25 0.21875 -2.34375q0.09375 -1.09375 0.09375 -1.84375q0 -1.9375 -0.53125 -2.625q-0.53125 -0.6875 -1.21875 -0.6875q-1.0 0 -2.28125 1.15625q-1.28125 1.15625 -2.6875 3.03125q-1.40625 1.875 -2.8125 4.21875q-1.40625 2.34375 -2.71875 4.65625q-1.3125 2.3125 -2.375 4.40625q-1.0625 2.09375 -1.75 3.46875q-1.3125 2.625 -2.65625 3.53125q-1.34375 0.90625 -2.40625 0.90625q-1.9375 0 -2.96875 -1.53125q-1.03125 -1.53125 -1.03125 -3.71875l0 -3.9375q0 -11.8125 0.03125 -22.53125q0.03125 -10.71875 0.3125 -19.9375q0.28125 -9.21875 0.9375 -16.6875q0.65625 -7.46875 1.96875 -12.75q1.3125 -5.28125 3.34375 -8.15625q2.03125 -2.875 5.09375 -2.875q2.625 0 4.4375 1.4375q1.8125 1.4375 2.9375 3.90625q1.125 2.46875 1.625 5.75q0.5 3.28125 0.5 6.90625q0 7.375 -1.34375 14.46875q-1.34375 7.09375 -3.59375 13.84375q-2.25 6.75 -5.25 13.15625q-3.0 6.40625 -6.3125 12.46875q0 1.125 0 2.6875q0 1.5625 0 3.125q0 1.5625 0 2.9375q0 1.375 0 2.1875l0.0625 2.9375zm0 -23.0625q2.625 -5.75 4.78125 -11.21875q2.15625 -5.46875 3.6875 -10.90625q1.53125 -5.4375 2.40625 -11.03125q0.875 -5.59375 0.875 -11.65625q0 -1.0 -0.09375 -3.1875q-0.09375 -2.1875 -0.5625 -4.4375q-0.46875 -2.25 -1.4375 -3.9375q-0.96875 -1.6875 -2.71875 -1.6875q-1.375 0 -2.375 1.84375q-1.0 1.84375 -1.75 5.0q-0.75 3.15625 -1.25 7.34375q-0.5 4.1875 -0.8125 8.875q-0.3125 4.6875 -0.46875 9.625q-0.15625 4.9375 -0.21875 9.59375q-0.0625 4.65625 -0.0625 8.71875q0 4.0625 0 7.0625zm50.625 21.5q1.3125 1.8125 3.375 2.90625q2.0625 1.09375 5.0625 1.09375q3.0625 0 5.5625 -1.46875q2.5 -1.46875 4.5625 -3.84375q2.0625 -2.375 3.6875 -5.3125q1.625 -2.9375 2.9375 -5.875q0.3125 -0.6875 0.875 -1.03125q0.5625 -0.34375 1.25 -0.34375q1.0625 0 1.71875 0.75q0.65625 0.75 0.65625 1.625q0 0.3125 -0.0625 0.53125q-0.0625 0.21875 -0.1875 0.46875q-4.3125 9.5 -9.40625 14.3125q-5.09375 4.8125 -11.53125 4.9375q-4.125 0 -7.125 -1.59375q-3.0 -1.59375 -4.9375 -4.125q-1.9375 -2.53125 -2.875 -5.71875q-0.9375 -3.1875 -0.9375 -6.375q0 -3.1875 0.78125 -5.875q0.78125 -2.6875 2.25 -4.6875q1.46875 -2.0 3.5 -3.125q2.03125 -1.125 4.46875 -1.125q1.4375 0 2.84375 0.59375q1.40625 0.59375 2.53125 1.6875q1.125 1.09375 1.8125 2.65625q0.6875 1.5625 0.6875 3.5625q0 2.5625 -0.875 4.8125q-0.875 2.25 -2.40625 4.1875q-1.53125 1.9375 -3.65625 3.5625q-2.125 1.625 -4.5625 2.8125zm-1.875 -4.0625q1.9375 -0.8125 3.53125 -2.0625q1.59375 -1.25 2.71875 -2.75q1.125 -1.5 1.75 -3.15625q0.625 -1.65625 0.625 -3.34375q0 -1.875 -0.9375 -2.84375q-0.9375 -0.96875 -2.1875 -0.96875q-1.6875 0 -2.875 0.9375q-1.1875 0.9375 -1.9375 2.4375q-0.75 1.5 -1.09375 3.34375q-0.34375 1.84375 -0.34375 3.65625q0 1.125 0.21875 2.375q0.21875 1.25 0.53125 2.375zm142.0625 -32.5q5.375 1.5 9.15625 3.4375q3.78125 1.9375 6.375 4.03125q2.59375 2.09375 4.09375 4.28125q1.5 2.1875 2.3125 4.1875q0.8125 2.0 1.03125 3.71875q0.21875 1.71875 0.21875 2.90625q0 4.375 -1.65625 7.8125q-1.65625 3.4375 -4.46875 6.0625q-2.8125 2.625 -6.53125 4.4375q-3.71875 1.8125 -7.78125 2.96875q-4.0625 1.15625 -8.3125 1.6875q-4.25 0.53125 -8.0625 0.53125q-6.1875 0 -12.78125 -1.25q-6.59375 -1.25 -13.34375 -4.0625q-1.5 -0.625 -1.5 -2.1875q0 -1.0625 0.75 -1.71875q0.75 -0.65625 1.625 -0.65625q0.4375 0 0.9375 0.1875q5.8125 2.4375 11.9375 3.6875q6.125 1.25 12.3125 1.25q8.4375 0 14.5 -1.625q6.0625 -1.625 9.96875 -4.28125q3.90625 -2.65625 5.78125 -6.0q1.875 -3.34375 1.875 -6.78125q0 -3.8125 -2.09375 -7.0625q-2.09375 -3.25 -5.9375 -5.8125q-3.84375 -2.5625 -9.21875 -4.375q-5.375 -1.8125 -11.9375 -2.6875q-4.3125 0.75 -8.375 1.0625q-4.0625 0.3125 -7.5 0.3125l-1.4375 0q-0.4375 0 -0.8125 -0.0625q-4.5 10.8125 -10.71875 18.6875q-6.21875 7.875 -13.25 13.03125q-7.03125 5.15625 -14.4375 7.625q-7.40625 2.46875 -14.21875 2.46875q-7.0625 0 -12.96875 -1.96875q-5.90625 -1.96875 -10.15625 -5.59375q-4.25 -3.625 -6.625 -8.78125q-2.375 -5.15625 -2.375 -11.53125q0 -6.625 2.59375 -13.71875q2.59375 -7.09375 7.71875 -14.40625q4.875 -6.875 10.8125 -12.34375q5.9375 -5.46875 12.46875 -9.59375q6.53125 -4.125 13.46875 -7.0625q6.9375 -2.9375 13.78125 -4.8125q6.84375 -1.875 13.375 -2.71875q6.53125 -0.84375 12.28125 -0.84375q4.6875 0 8.9375 0.3125q4.25 0.3125 8.125 0.9375q2.25 -2.5 3.625 -3.59375q1.375 -1.09375 1.5625 -1.21875q0.75 -0.375 1.3125 -0.375q0.875 0 1.5625 0.5q0.6875 0.5 0.6875 1.4375q0 1.25 -0.875 2.09375q-0.875 0.84375 -2.375 2.28125q11.4375 2.8125 17.5 8.46875q6.0625 5.65625 6.0625 13.96875q0 4.5625 -1.5 8.1875q-1.5 3.625 -4.09375 6.375q-2.59375 2.75 -6.0625 4.78125q-3.46875 2.03125 -7.34375 3.40625zm-10.6875 -2.0625q2.75 -0.5 5.65625 -1.3125q2.90625 -0.8125 5.6875 -1.96875q2.78125 -1.15625 5.28125 -2.75q2.5 -1.59375 4.34375 -3.75q1.84375 -2.15625 2.9375 -4.84375q1.09375 -2.6875 1.09375 -6.125q0 -7.0 -5.8125 -11.5625q-5.8125 -4.5625 -16.6875 -6.75q-3.125 3.875 -5.875 8.5625q-2.75 4.6875 -5.0625 9.71875q-2.3125 5.03125 -4.15625 10.1875q-1.84375 5.15625 -3.03125 9.96875q1.25 -0.0625 2.3125 -0.0625q1.0625 0 1.8125 0q2.4375 0 5.3125 0.15625q2.875 0.15625 6.1875 0.53125zm-2.8125 -39.9375q-3.1875 -0.4375 -6.5625 -0.625q-3.375 -0.1875 -7.0625 -0.1875q-5.5 0 -11.6875 0.8125q-6.1875 0.8125 -12.6875 2.5625q-6.5 1.75 -13.09375 4.53125q-6.59375 2.78125 -12.8125 6.6875q-6.21875 3.90625 -11.84375 9.09375q-5.625 5.1875 -10.25 11.6875q-4.6875 6.625 -7.0625 13.0625q-2.375 6.4375 -2.375 12.25q0 5.4375 1.96875 9.75q1.96875 4.3125 5.59375 7.28125q3.625 2.96875 8.6875 4.5625q5.0625 1.59375 11.1875 1.59375q6.125 0 12.75 -2.21875q6.625 -2.21875 12.9375 -6.8125q6.3125 -4.59375 12.0 -11.625q5.6875 -7.03125 9.9375 -16.71875q-1.125 0 -2.3125 -0.65625q-1.1875 -0.65625 -1.1875 -2.09375q0 -1.5 1.4375 -2.15625q1.4375 -0.65625 4.5 -1.09375q1.6875 -5.125 3.4375 -10.25q1.75 -5.125 3.875 -10.125q2.125 -5.0 4.6875 -9.84375q2.5625 -4.84375 5.9375 -9.46875zm53.4375 78.5625q1.3125 1.8125 3.375 2.90625q2.0625 1.09375 5.0625 1.09375q3.0625 0 5.5625 -1.46875q2.5 -1.46875 4.5625 -3.84375q2.0625 -2.375 3.6875 -5.3125q1.625 -2.9375 2.9375 -5.875q0.3125 -0.6875 0.875 -1.03125q0.5625 -0.34375 1.25 -0.34375q1.0625 0 1.71875 0.75q0.65625 0.75 0.65625 1.625q0 0.3125 -0.0625 0.53125q-0.0625 0.21875 -0.1875 0.46875q-4.3125 9.5 -9.40625 14.3125q-5.09375 4.8125 -11.53125 4.9375q-4.125 0 -7.125 -1.59375q-3.0 -1.59375 -4.9375 -4.125q-1.9375 -2.53125 -2.875 -5.71875q-0.9375 -3.1875 -0.9375 -6.375q0 -3.1875 0.78125 -5.875q0.78125 -2.6875 2.25 -4.6875q1.46875 -2.0 3.5 -3.125q2.03125 -1.125 4.46875 -1.125q1.4375 0 2.84375 0.59375q1.40625 0.59375 2.53125 1.6875q1.125 1.09375 1.8125 2.65625q0.6875 1.5625 0.6875 3.5625q0 2.5625 -0.875 4.8125q-0.875 2.25 -2.40625 4.1875q-1.53125 1.9375 -3.65625 3.5625q-2.125 1.625 -4.5625 2.8125zm-1.875 -4.0625q1.9375 -0.8125 3.53125 -2.0625q1.59375 -1.25 2.71875 -2.75q1.125 -1.5 1.75 -3.15625q0.625 -1.65625 0.625 -3.34375q0 -1.875 -0.9375 -2.84375q-0.9375 -0.96875 -2.1875 -0.96875q-1.6875 0 -2.875 0.9375q-1.1875 0.9375 -1.9375 2.4375q-0.75 1.5 -1.09375 3.34375q-0.34375 1.84375 -0.34375 3.65625q0 1.125 0.21875 2.375q0.21875 1.25 0.53125 2.375zm34.0 -12.1875q-0.375 1.0 -0.90625 2.25q-0.53125 1.25 -1.21875 2.625q-0.5625 1.0625 -1.15625 1.65625q-0.59375 0.59375 -1.53125 0.59375q-1.0625 0 -1.6875 -0.65625q-0.625 -0.65625 -0.625 -1.53125q0 -0.3125 0.0625 -0.53125q0.0625 -0.21875 0.3125 -0.71875q1.625 -3.125 2.40625 -5.46875q0.78125 -2.34375 1.28125 -4.90625q-0.4375 -1.4375 -0.625 -2.4375q-0.1875 -1.0 -0.1875 -2.0625q0 -2.0625 0.875 -3.34375q0.875 -1.28125 2.4375 -1.28125q1.4375 0 2.28125 1.25q0.84375 1.25 0.84375 3.0625q0 1.0 -0.1875 2.0q-0.1875 1.0 -0.5 2.5q1.4375 3.5625 2.875 6.3125q1.4375 2.75 2.5625 5.03125q1.125 2.28125 1.84375 4.28125q0.71875 2.0 0.71875 4.0q0 2.625 -1.0625 5.0q-1.0625 2.375 -3.5 4.0q0.3125 0.0625 0.625 0.0625q0.3125 0 0.625 0q3.5625 0 6.5625 -1.625q3.0 -1.625 5.40625 -4.21875q2.40625 -2.59375 4.28125 -5.75q1.875 -3.15625 3.25 -6.28125q0.625 -1.4375 1.75 -1.4375q1.0625 0 1.65625 0.75q0.59375 0.75 0.59375 1.625q0 0.5 -0.1875 0.9375q-0.6875 1.6875 -1.78125 3.84375q-1.09375 2.15625 -2.625 4.4375q-1.53125 2.28125 -3.53125 4.46875q-2.0 2.1875 -4.46875 3.90625q-2.46875 1.71875 -5.40625 2.75q-2.9375 1.03125 -6.4375 1.03125q-4.1875 0 -7.78125 -1.46875q-3.59375 -1.46875 -5.84375 -4.84375q-0.375 -0.5625 -0.375 -1.1875q0 -0.9375 0.71875 -1.65625q0.71875 -0.71875 1.65625 -0.71875q1.0 0 1.6875 0.6875q0.0625 0.125 0.4375 0.40625q0.375 0.28125 0.90625 0.625q0.53125 0.34375 1.25 0.59375q0.71875 0.25 1.46875 0.25q1.5 0 2.53125 -0.625q1.03125 -0.625 1.65625 -1.53125q0.625 -0.90625 0.90625 -1.9375q0.28125 -1.03125 0.28125 -1.78125q0 -1.5625 -0.5 -3.125q-0.5 -1.5625 -1.28125 -3.125q-0.78125 -1.5625 -1.6875 -3.21875q-0.90625 -1.65625 -1.65625 -3.46875zm76.1875 -39.4375q0 1.0 -0.6875 1.59375q-0.6875 0.59375 -1.6875 0.59375l-31.6875 0l0 0.6875q0 3.8125 -0.5625 8.125q-0.5625 4.3125 -1.53125 8.59375q-0.96875 4.28125 -2.1875 8.34375q-1.21875 4.0625 -2.5 7.5q-1.28125 3.4375 -2.53125 5.96875q-1.25 2.53125 -2.25 3.78125q0.8125 2.875 1.9375 5.34375q1.125 2.46875 2.53125 4.3125q1.40625 1.84375 3.03125 2.90625q1.625 1.0625 3.5 1.0625q2.1875 0 4.34375 -1.84375q2.15625 -1.84375 4.0 -4.375q1.84375 -2.53125 3.25 -5.125q1.40625 -2.59375 2.03125 -4.15625q0.625 -1.5 2.1875 -1.5q1.0625 0 1.71875 0.75q0.65625 0.75 0.65625 1.625q0 0.4375 -0.1875 0.875q-0.1875 0.4375 -0.90625 2.0q-0.71875 1.5625 -1.875 3.625q-1.15625 2.0625 -2.6875 4.34375q-1.53125 2.28125 -3.4375 4.15625q-1.90625 1.875 -4.09375 3.125q-2.1875 1.25 -4.625 1.25q-4.3125 0 -7.75 -2.8125q-3.4375 -2.8125 -5.84375 -7.875q-2.40625 -5.0625 -3.65625 -12.0q-1.25 -6.9375 -1.25 -15.1875q0 -2.0625 0.0625 -4.84375q0.0625 -2.78125 0.25 -5.875q0.1875 -3.09375 0.5625 -6.375q0.375 -3.28125 1.0 -6.40625l-22.4375 0q-1.0 0 -1.6875 -0.59375q-0.6875 -0.59375 -0.6875 -1.59375q0 -1.0 0.6875 -1.59375q0.6875 -0.59375 1.6875 -0.59375l23.5 0q0.625 -2.25 1.46875 -4.125q0.84375 -1.875 1.9375 -3.25q1.09375 -1.375 2.4375 -2.15625q1.34375 -0.78125 2.96875 -0.78125q1.5625 0 2.71875 0.78125q1.15625 0.78125 1.96875 2.15625q0.8125 1.375 1.28125 3.25q0.46875 1.875 0.71875 4.125l31.9375 0q1.0 0 1.6875 0.59375q0.6875 0.59375 0.6875 1.59375zm-47.0625 38.9375q1.875 -4.125 3.40625 -8.90625q1.53125 -4.78125 2.625 -9.65625q1.09375 -4.875 1.6875 -9.5625q0.59375 -4.6875 0.59375 -8.625l-7.375 0q-0.875 3.875 -1.40625 9.59375q-0.53125 5.71875 -0.53125 13.90625q0 4.5625 0.25 7.65625q0.25 3.09375 0.75 5.59375zm5.8125 -46.75q-0.5625 0 -1.625 1.21875q-1.0625 1.21875 -2.125 4.40625l6.0 0q-0.3125 -2.625 -0.90625 -4.125q-0.59375 -1.5 -1.34375 -1.5zm-4.8125 51.25l0 0.0625l0 -0.0625z" fill-rule="nonzero"/></g></svg>